<svg xmlns="http://www.w3.org/2000/svg" viewBox="0 0 500 500">
  <defs>
    <style>.cls-1{fill:#fff;fill-rule:evened;}</style>
  </defs>
  <title>Plan de travail 1</title>
  <path class="cls-1"
        d="M219.57,485.91q57.06-43.55,87.81-104.58,30.53-61,31-131.33-.5-70.53-31.27-131.82-30.75-61-88-104.81a2.75,2.75,0,0,0-3.75.49,3.12,3.12,0,0,0-.76,1.76,3.07,3.07,0,0,0,1,2.25q50.27,45.29,77.29,105.32A308.76,308.76,0,0,1,320.15,250a308.22,308.22,0,0,1-27.27,126.58q-27,60-77.29,105.32a3,3,0,0,0-1,2.25,2.93,2.93,0,0,0,2.76,3,3.42,3.42,0,0,0,2.24-1.25"/>
  <path class="cls-1"
        d="M261.36,250a278.54,278.54,0,0,0-26.27-118.31q-26.26-55.53-74.54-96.57a2.87,2.87,0,0,0-4,.26,2.35,2.35,0,0,0-.76,1.75,2.69,2.69,0,0,0,.76,2Q242.1,127.69,243.34,250q-1.23,122.33-86.79,210.64a3.25,3.25,0,0,0-.76,2,2.91,2.91,0,0,0,2.75,3,2.66,2.66,0,0,0,2.5-1.25q48-41,74.05-96.31A278,278,0,0,0,261.36,250"/>
  <path class="cls-1"
        d="M184.55,250q-1.73-113.07-82.78-193.36a2.74,2.74,0,0,0-3.75,0,2.82,2.82,0,0,0-1,2,2.76,2.76,0,0,0,.76,2Q165.31,142.94,166.55,250q-1,107.08-68.79,189.37a3.34,3.34,0,0,0-.76,2c.18,1.85,1.1,2.84,2.76,3a3.26,3.26,0,0,0,2.5-1.51q80.55-80,82.29-192.87"/>
  <path class="cls-1"
        d="M43.73,421.35q63-74,64-171.35-1-97.56-64.55-171.59a2.74,2.74,0,0,0-3.75-.51,2.91,2.91,0,0,0-1.26,2.25,3.16,3.16,0,0,0,.51,1.76Q89.27,158,89.75,250q-.5,92.08-51,168.37a3,3,0,0,0-.51,1.73c0,1.68,1,2.6,3,2.76a2.92,2.92,0,0,0,2.5-1.51"/>
  <path class="cls-1"
        d="M291.38,485.91a2.9,2.9,0,0,0-.26-4q-50.26-45.28-77.29-105.32a305.4,305.4,0,0,1,0-253.39q27-60,77.29-105.32a2.88,2.88,0,0,0,.26-4,3.05,3.05,0,0,0-4-.49q-57,43.77-87.81,104.81-31,61.27-31.27,131.82.27,70.31,31.27,131.58,30.78,61,87.81,104.81a3.05,3.05,0,0,0,4-.48"/>
  <path class="cls-1"
        d="M245.1,250a277.32,277.32,0,0,0,26.52,118.34q26,55.52,74.54,96.55a2.57,2.57,0,0,0,3.75-.25,2.72,2.72,0,0,0,0-4q-85.3-88.3-86.79-210.64,1.49-122.31,86.79-210.87,1.75-1.76,0-3.75a2.58,2.58,0,0,0-3.75-.26q-48.53,41-74.54,96.57A276.1,276.1,0,0,0,245.1,250"/>
  <path class="cls-1"
        d="M322.14,250q2,113.33,82.8,193.38a3.06,3.06,0,0,0,4,0,3.27,3.27,0,0,0,.25-4q-68-82.29-69-189.37,1.26-107.05,69-189.35a3.27,3.27,0,0,0-.25-4,3.08,3.08,0,0,0-4,0q-80.79,80.3-82.8,193.36"/>
  <path class="cls-1"
        d="M398.94,250q1,97.56,64.53,171.86a2.88,2.88,0,0,0,4,.26,2.72,2.72,0,0,0,.51-3.75Q417.44,342.05,417,250q.5-91.78,51-168.09a2.86,2.86,0,0,0-4.52-3.5q-63.53,74-64.53,171.59"/>
</svg>
